<?xml version="1.0" encoding="utf-8"?>
<!-- Generator: Adobe Illustrator 16.0.0, SVG Export Plug-In . SVG Version: 6.00 Build 0)  -->
<!DOCTYPE svg PUBLIC "-//W3C//DTD SVG 1.1//EN" "http://www.w3.org/Graphics/SVG/1.1/DTD/svg11.dtd">
<svg version="1.1" id="Layer_1" xmlns="http://www.w3.org/2000/svg" xmlns:xlink="http://www.w3.org/1999/xlink" x="0px" y="0px"
	 width="150px" height="150px" viewBox="0 0 150 150" enable-background="new 0 0 150 150" xml:space="preserve">
<g>
	<path fill="#F1F0F0" d="M75.05,39.089c-21.437,0-38.815,17.379-38.815,38.816c0,21.437,17.378,38.814,38.815,38.814
		c21.437,0,38.814-17.378,38.814-38.814C113.864,56.468,96.486,39.089,75.05,39.089z M106.336,81.424
		c-7.692-3.275-21.003-5.235-21.003-5.235s11.26-8.018,16.672-14.559c2.873,4.75,4.528,10.319,4.528,16.276
		C106.533,79.096,106.466,80.271,106.336,81.424z M78.86,46.652c7.155,0.863,13.575,4.125,18.423,8.962
		c-7.477,3.943-17.656,13.418-17.656,13.418S80.552,54.989,78.86,46.652z M70.474,69.033c0,0-10.181-9.476-17.657-13.418
		c4.849-4.837,11.267-8.1,18.423-8.962C69.548,54.989,70.474,69.033,70.474,69.033z M48.094,61.63
		c5.413,6.541,16.673,14.558,16.673,14.558s-13.312,1.96-21.003,5.235c-0.128-1.153-0.197-2.328-0.197-3.519
		C43.566,71.948,45.221,66.38,48.094,61.63z M45.552,88.928c8.403-0.188,21.251-3.816,21.251-3.816s-6.476,11.341-8.684,19.343
		C52.412,100.805,47.959,95.366,45.552,88.928z M65.127,107.79c4.96-6.676,9.922-18.707,9.922-18.707s4.964,12.031,9.924,18.707
		c-3.12,1.035-6.457,1.598-9.924,1.598C71.582,109.388,68.246,108.825,65.127,107.79z M91.979,104.454
		c-2.208-8.002-8.684-19.343-8.684-19.343s12.847,3.628,21.252,3.816C102.141,95.366,97.688,100.805,91.979,104.454z"/>
	<circle fill="#F1F0F0" cx="75" cy="22.418" r="7.418"/>
	<g>
		<circle fill="#F1F0F0" cx="98.694" cy="127.581" r="7.418"/>
		<circle fill="#F1F0F0" cx="51.305" cy="127.581" r="7.418"/>
	</g>
	<g>
		<circle fill="#F1F0F0" cx="127.154" cy="90.576" r="7.418"/>
		<circle fill="#F1F0F0" cx="22.846" cy="90.576" r="7.418"/>
	</g>
	<g>
		<circle fill="#F1F0F0" cx="118.33" cy="43.4" r="7.418"/>
		<circle fill="#F1F0F0" cx="31.67" cy="43.4" r="7.418"/>
	</g>
</g>
<g id="frame">
	<path fill="#F1F0F0" d="M0,0v150h150V0H0z M145,75v70H5V75V5h140V75z"/>
</g>
</svg>
