<?xml version="1.0" encoding="utf-8"?>
<!-- Generator: Adobe Illustrator 16.0.0, SVG Export Plug-In . SVG Version: 6.00 Build 0)  -->
<!DOCTYPE svg PUBLIC "-//W3C//DTD SVG 1.1//EN" "http://www.w3.org/Graphics/SVG/1.1/DTD/svg11.dtd">
<svg version="1.1" id="Layer_1" xmlns="http://www.w3.org/2000/svg" xmlns:xlink="http://www.w3.org/1999/xlink" x="0px" y="0px"
	 width="150px" height="150px" viewBox="0 0 150 150" enable-background="new 0 0 150 150" xml:space="preserve">
<g>
	<path fill="#FFFFFF" d="M135,41.716h-17.719v-3.674c1.229-1.055,2.464-2.109,3.699-3.164c1.236-1.055,2.389-2.104,3.455-3.146
		c2.25-2.18,3.791-3.911,4.623-5.194c0.831-1.283,1.247-2.669,1.247-4.157c0-1.359-0.448-2.423-1.345-3.19s-2.146-1.151-3.753-1.151
		c-1.065,0-2.222,0.188-3.463,0.563c-1.242,0.375-2.455,0.949-3.64,1.723h-0.176v-3.691c0.832-0.41,1.942-0.785,3.331-1.125
		c1.39-0.34,2.733-0.51,4.034-0.51c2.684,0,4.787,0.647,6.311,1.942c1.524,1.295,2.285,3.05,2.285,5.265
		c0,0.996-0.126,1.925-0.378,2.786c-0.252,0.861-0.624,1.679-1.116,2.452c-0.457,0.727-0.992,1.441-1.607,2.145
		s-1.362,1.482-2.241,2.338c-1.254,1.23-2.549,2.423-3.885,3.577c-1.337,1.154-2.584,2.224-3.744,3.208h14.08L135,41.716L135,41.716
		z"/>
</g>
<g>
	<path fill="#FFFFFF" d="M109.633,113.932L93.505,99.581l-7.487-7.488c1.535-2.729,2.451-6.04,2.451-9.632
		c0-2.38-0.406-4.639-1.123-6.693l6.598-6.595l2.709,1.142l7.685-15.052l-15.06,7.68l1.146,2.709l-5.507,5.507
		c-1.869-2.553-4.325-4.411-7.135-5.148V49.205l7.842,3.56L75,30L64.376,52.765l7.843-3.56v16.807
		c-2.811,0.737-5.267,2.596-7.131,5.148l-5.507-5.507l1.141-2.709L45.67,55.26l7.68,15.058l2.709-1.145l6.595,6.595
		c-0.717,2.055-1.123,4.312-1.123,6.693c0,3.592,0.916,6.9,2.452,9.632l-7.487,7.488L40.37,113.934l-0.773,6.063l6.068-0.771
		l14.352-16.129l7.079-7.074c1.506,1.375,3.23,2.398,5.125,2.894v3.913l-6.197,10.622H75h8.979l-6.197-10.622v-3.913
		c1.894-0.494,3.617-1.519,5.128-2.894l7.077,7.078l14.355,16.125l6.063,0.773L109.633,113.932z M75,90.938
		c-3.038,0-5.501-3.566-5.501-7.969s2.463-7.968,5.501-7.968c3.039,0,5.501,3.565,5.501,7.968S78.038,90.938,75,90.938z"/>
</g>
</svg>
