<?xml version="1.0" encoding="utf-8"?>
<!-- Generator: Adobe Illustrator 16.0.0, SVG Export Plug-In . SVG Version: 6.00 Build 0)  -->
<!DOCTYPE svg PUBLIC "-//W3C//DTD SVG 1.1//EN" "http://www.w3.org/Graphics/SVG/1.1/DTD/svg11.dtd">
<svg version="1.1" id="Layer_1" xmlns="http://www.w3.org/2000/svg" xmlns:xlink="http://www.w3.org/1999/xlink" x="0px" y="0px"
	 width="150px" height="150px" viewBox="0 0 150 150" enable-background="new 0 0 150 150" xml:space="preserve">
<g>
	<path fill="#FFFFFF" d="M50.01,41.287c-2.2,2.2-1.886,26.405,0,28.291c1.113,0,3.959,0,7.514,0V41.287
		C55.136,41.287,52.57,41.287,50.01,41.287z"/>
	<path fill="#FFFFFF" d="M80.973,41.287c0,0-0.785-6.287-5.973-6.287c-5.187,0-5.972,6.287-5.972,6.287s-3.688,0-8.733,0v28.291
		c2.799,0,5.84,0,8.733,0c0,3.772,0,35.52,0,41.021c0,2.441,3.299,4.4,5.972,4.4s5.973-1.959,5.973-4.4c0-5.502,0-37.25,0-41.021
		c2.894,0,5.934,0,8.731,0V41.287C84.658,41.287,80.973,41.287,80.973,41.287z"/>
	<path fill="#FFFFFF" d="M99.99,41.287c-2.561,0-5.127,0-7.516,0v28.291c3.555,0,6.402,0,7.516,0
		C101.877,67.692,102.189,43.487,99.99,41.287z"/>
</g>
<g>
	<path fill="#FFFFFF" d="M135,41.262h-14.168V38.59h5.449V21.047h-5.449v-2.391c0.738,0,1.529-0.063,2.373-0.185
		c0.844-0.123,1.482-0.302,1.916-0.536c0.539-0.293,0.963-0.665,1.273-1.116c0.31-0.451,0.489-1.058,0.537-1.819h2.725v23.59H135
		V41.262z"/>
</g>
</svg>
