<?xml version="1.0" encoding="utf-8"?>
<!-- Generator: Adobe Illustrator 16.0.0, SVG Export Plug-In . SVG Version: 6.00 Build 0)  -->
<!DOCTYPE svg PUBLIC "-//W3C//DTD SVG 1.1//EN" "http://www.w3.org/Graphics/SVG/1.1/DTD/svg11.dtd">
<svg version="1.1" xmlns="http://www.w3.org/2000/svg" xmlns:xlink="http://www.w3.org/1999/xlink" x="0px" y="0px" width="500px"
	 height="500px" viewBox="0 0 500 500" enable-background="new 0 0 500 500" xml:space="preserve">
<g id="background">
	<rect fill="#BEC0C2" stroke="#BEC0C2" stroke-miterlimit="10" width="500" height="500"/>
</g>
<g id="Layer_3">
	<g>
		<polygon fill="#BEC0C2" points="95.313,475 19.214,314.398 46.726,94.604 250,25 444.466,72.004 480.785,314.398 410.003,456.186 
					"/>
		<polygon fill="#BABCBE" points="115.196,453.843 44.646,309.934 68.785,113.004 250.931,46.157 424.184,94.185 459.572,307.703 
			389.865,438.164 		"/>
		<polygon fill="#B6B8BB" points="135.078,432.687 70.078,305.469 90.843,131.405 251.861,67.314 403.9,116.365 438.358,301.008 
			369.728,420.144 		"/>
		<polygon fill="#B2B4B7" points="154.96,411.529 95.51,301.003 112.901,149.806 252.791,88.471 383.617,138.545 417.145,294.313 
			349.59,402.121 		"/>
		<polygon fill="#AFB1B3" points="174.843,390.372 120.942,296.539 134.96,168.207 253.723,109.628 363.334,160.726 
			395.933,287.617 329.452,384.101 		"/>
		<polygon fill="#ABADAF" points="194.726,369.216 146.375,292.073 157.019,186.608 254.653,130.785 343.052,182.906 
			374.719,280.922 309.314,366.08 		"/>
		<polygon fill="#A7A9AC" points="214.608,348.059 171.807,287.608 179.077,205.008 255.584,151.941 322.769,205.086 
			353.506,274.227 289.177,348.059 		"/>
	</g>
</g>
<g id="Layer_2">
</g>
</svg>
