<?xml version="1.0" encoding="utf-8"?>
<!-- Generator: Adobe Illustrator 16.0.0, SVG Export Plug-In . SVG Version: 6.00 Build 0)  -->
<!DOCTYPE svg PUBLIC "-//W3C//DTD SVG 1.1//EN" "http://www.w3.org/Graphics/SVG/1.1/DTD/svg11.dtd">
<svg version="1.1" id="Layer_1" xmlns="http://www.w3.org/2000/svg" xmlns:xlink="http://www.w3.org/1999/xlink" x="0px" y="0px"
	 width="150px" height="150px" viewBox="0 0 150 150" enable-background="new 0 0 150 150" xml:space="preserve">
<g>
	<path fill="#FFFFFF" d="M100.496,106.358c0-4.275,33.875-68.858-25.496-68.858c-59.372,0-25.496,64.583-25.496,68.858
		c-4.095,0-6.142,2.601-6.142,6.142c7.445,0,15.445,0,15.445,0v-6.142c0,0-20.1-58.066,16.192-58.066
		c36.292,0,16.19,58.066,16.19,58.066v6.142c0,0,8.001,0,15.447,0C106.638,108.959,104.591,106.358,100.496,106.358z M45.745,78.311
		l-1.339-11.637l4.994-0.576l1.339,11.655L45.745,78.311z M51.183,57.094l-3.787-3.314l7.72-8.829l3.788,3.315L51.183,57.094z
		 M80.862,45.5H69.137v-5.025h11.725V45.5z M91.657,47.751l4.07-2.948l6.879,9.491l-4.065,2.948L91.657,47.751z M100.604,66.098
		l4.995,0.576l-1.339,11.637l-4.995-0.558L100.604,66.098z"/>
</g>
<g>
	<path fill="#FFFFFF" d="M135,41.262h-14.168V38.59h5.449V21.047h-5.449v-2.391c0.738,0,1.529-0.062,2.373-0.185
		s1.482-0.302,1.916-0.536c0.539-0.293,0.964-0.665,1.274-1.116s0.489-1.058,0.536-1.819h2.725v23.59H135V41.262z"/>
</g>
</svg>
