<?xml version="1.0" encoding="utf-8"?>
<!-- Generator: Adobe Illustrator 16.0.0, SVG Export Plug-In . SVG Version: 6.00 Build 0)  -->
<!DOCTYPE svg PUBLIC "-//W3C//DTD SVG 1.1//EN" "http://www.w3.org/Graphics/SVG/1.1/DTD/svg11.dtd">
<svg version="1.1" id="Layer_1" xmlns="http://www.w3.org/2000/svg" xmlns:xlink="http://www.w3.org/1999/xlink" x="0px" y="0px"
	 width="150px" height="150px" viewBox="0 0 150 150" enable-background="new 0 0 150 150" xml:space="preserve">
<g>
	<path fill="#FFFFFF" d="M135,33.809h-3.885v7.365h-3.375v-7.365h-12.533v-4.043L127.881,15h3.234v15.996H135V33.809z
		 M127.74,30.996V19.184l-10.143,11.813L127.74,30.996L127.74,30.996z"/>
</g>
<g>
	<path fill="#FFFFFF" d="M106.611,58.957c1.377-1.741,2.162-3.623,2.162-5.595c0-8.762-14.849-15.862-33.166-15.862
		c-18.314,0-33.165,7.101-33.165,15.862c0,1.598,0.506,3.141,1.426,4.596c-3.65,7.329-8.586,20.959-3.139,34.168
		c6.787,16.456,24.26,20.374,34.269,20.374c10.01,0,27.483-3.918,34.271-20.374C114.479,79.493,110.191,66.478,106.611,58.957z
		 M75.607,40.384c14.6,0,26.431,4.337,26.431,9.686c0,5.347-11.831,9.683-26.431,9.683c-14.593,0-26.425-4.336-26.425-9.683
		C49.182,44.721,61.015,40.384,75.607,40.384z M74.999,107.54c-31.723,0-28.161-33.396-22.901-40.352
		c0.347-0.716,0.562-1.509,0.679-2.341c5.948,2.706,13.975,4.376,22.833,4.376c8.326,0,15.916-1.479,21.742-3.901
		c0.127,0.651,0.274,1.296,0.551,1.866C103.161,74.144,106.725,107.54,74.999,107.54z"/>
	<ellipse fill="#FFFFFF" cx="75.607" cy="49.333" rx="15.863" ry="4.029"/>
</g>
</svg>
