<?xml version="1.0" encoding="utf-8"?>
<!-- Generator: Adobe Illustrator 16.0.0, SVG Export Plug-In . SVG Version: 6.00 Build 0)  -->
<!DOCTYPE svg PUBLIC "-//W3C//DTD SVG 1.1//EN" "http://www.w3.org/Graphics/SVG/1.1/DTD/svg11.dtd">
<svg version="1.1" id="Layer_1" xmlns="http://www.w3.org/2000/svg" xmlns:xlink="http://www.w3.org/1999/xlink" x="0px" y="0px"
	 width="40px" height="36px" viewBox="0 0 40 36" enable-background="new 0 0 40 36" xml:space="preserve">
<g>
	<rect fill="#BEC0C2" width="40" height="36"/>
	<path fill="#BBBDBF" d="M2.313,1.366c0.019,0.026,15.622-0.301,15.65-0.292C17.993,1.083,37.83,1.905,37.845,1.97
		s0.687,18.859,0.707,18.897c0.02,0.038-0.208,13.264-0.216,13.273c-0.008,0.009-18.21,0.791-18.21,0.791l-18.141-0.59L1.396,21.676
		l0.493-6.895C1.889,14.781,2.294,1.339,2.313,1.366z"/>
	<path fill="#B7B9BC" d="M4.627,2.732c0.038,0.053,13.846-0.602,13.902-0.584c0.058,0.018,17.131,1.663,17.16,1.792
		c0.03,0.13,1.374,16.46,1.414,16.535c0.039,0.075-0.417,11.787-0.432,11.806c-0.016,0.018-16.314,1.582-16.314,1.582L3.97,32.684
		L2.792,21.148l0.986-6.087C3.778,15.062,4.589,2.679,4.627,2.732z"/>
	<path fill="#B4B6B8" d="M6.94,4.099c0.057,0.08,12.069-0.903,12.155-0.876S33.49,5.717,33.534,5.911
		c0.045,0.194,2.062,14.06,2.121,14.173s-0.625,10.311-0.648,10.338c-0.022,0.027-14.417,2.373-14.417,2.373L5.955,31.024
		L4.188,20.62l1.48-5.278C5.668,15.342,6.883,4.019,6.94,4.099z"/>
	<path fill="#B1B3B5" d="M9.253,5.465C9.33,5.571,19.547,4.261,19.661,4.297C19.776,4.333,31.32,7.622,31.38,7.881
		s2.748,11.661,2.827,11.812c0.08,0.151-0.833,8.833-0.864,8.87c-0.03,0.035-12.521,3.164-12.521,3.164L7.94,29.366l-2.356-9.273
		l1.973-4.471C7.557,15.622,9.177,5.358,9.253,5.465z"/>
	<path fill="#AEB0B2" d="M11.567,6.831c0.095,0.133,8.517-1.505,8.66-1.46c0.145,0.045,8.924,4.156,8.998,4.48
		c0.074,0.323,3.436,9.262,3.534,9.449c0.1,0.189-1.042,7.356-1.08,7.402c-0.038,0.045-10.624,3.955-10.624,3.955l-11.129-2.95
		L6.98,19.564l2.466-3.662C9.446,15.903,11.472,6.698,11.567,6.831z"/>
	<path fill="#AAACAF" d="M13.88,8.198c0.114,0.159,6.741-1.806,6.912-1.752c0.172,0.054,6.188,4.987,6.277,5.376
		s4.122,6.862,4.241,7.088c0.12,0.227-1.25,5.878-1.296,5.934c-0.046,0.054-8.729,4.746-8.729,4.746l-9.375-3.541l-3.535-7.013
		l2.96-2.853C11.336,16.184,13.766,8.037,13.88,8.198z"/>
	<path fill="#A7A9AC" d="M21.519,28.521c0,0,6.778-5.475,6.832-5.537c0.054-0.064,1.65-4.202,1.512-4.466
		c-0.14-0.263-4.844-4.273-4.948-4.727c-0.104-0.454-3.354-6.209-3.556-6.272c-0.2-0.063-5.031,2.23-5.165,2.044
		c-0.134-0.187-2.969,6.9-2.969,6.9l-3.453,2.044l4.124,5.882L21.519,28.521z"/>
</g>
<g>
	<path fill="#7D7E81" d="M0,0l1.688,0.625L3.25,0.313h3.375h1.188l1.959,0.563h10.541l2.25-0.438h7.75l1.438,0.438h2.5L35.563,1.5
		h2.375l0.938,0.625l0.313,0.75l-0.5,0.875c0,0,0.563,1.188,0.5,1.438s0.438,9.188,0.438,9.188v5l-0.313,0.5L39.625,21v3.375
		l-0.375,0.438l0.375,1.563l-0.688,3.313l-0.125,0.875c0,0,0,1-0.063,1.25s0.438,2.5,0.438,2.5l-0.563,0.75l-0.938,0.563h-1.813
		l-4.688-0.375H28.25l-2.125-0.188l-2.875,0.25l-5.188,0.313h-4.188c0,0-0.688,0.125-1.125,0s-1.375-0.375-1.375-0.375l-0.625-0.313
		l-0.625,0.313l-0.353-0.063l-6.084,0.493H1.75L0,36h40V0H0z"/>
</g>
</svg>
