<?xml version="1.0" encoding="utf-8"?>
<!-- Generator: Adobe Illustrator 16.0.0, SVG Export Plug-In . SVG Version: 6.00 Build 0)  -->
<!DOCTYPE svg PUBLIC "-//W3C//DTD SVG 1.1//EN" "http://www.w3.org/Graphics/SVG/1.1/DTD/svg11.dtd">
<svg version="1.1" id="Layer_1" xmlns="http://www.w3.org/2000/svg" xmlns:xlink="http://www.w3.org/1999/xlink" x="0px" y="0px"
	 width="150px" height="150px" viewBox="0 0 150 150" enable-background="new 0 0 150 150" xml:space="preserve">
<g>
	<path fill="#FFFFFF" d="M133.066,29.115c0.563,0.504,1.024,1.137,1.389,1.898c0.363,0.761,0.545,1.747,0.545,2.954
		c0,1.195-0.217,2.291-0.65,3.287c-0.433,0.996-1.043,1.863-1.828,2.602c-0.879,0.82-1.912,1.427-3.103,1.819
		c-1.19,0.392-2.493,0.589-3.911,0.589c-1.453,0-2.883-0.173-4.289-0.519c-1.406-0.346-2.561-0.724-3.463-1.134v-3.674h0.264
		c0.996,0.656,2.168,1.201,3.517,1.635c1.348,0.434,2.647,0.65,3.901,0.65c0.738,0,1.523-0.123,2.355-0.369s1.506-0.609,2.021-1.09
		c0.539-0.516,0.939-1.084,1.203-1.705c0.265-0.621,0.396-1.406,0.396-2.355c0-0.938-0.148-1.714-0.448-2.329
		c-0.299-0.615-0.712-1.099-1.239-1.45c-0.526-0.363-1.166-0.612-1.916-0.747c-0.75-0.135-1.559-0.202-2.426-0.202h-1.582v-2.918
		h1.23c1.781,0,3.201-0.372,4.263-1.116s1.591-1.831,1.591-3.261c0-0.633-0.135-1.187-0.404-1.661
		c-0.269-0.474-0.645-0.864-1.125-1.169c-0.504-0.305-1.043-0.516-1.616-0.633c-0.574-0.117-1.226-0.176-1.951-0.176
		c-1.113,0-2.297,0.199-3.552,0.598c-1.254,0.399-2.438,0.961-3.551,1.688h-0.176v-3.675c0.832-0.41,1.942-0.788,3.331-1.134
		c1.39-0.346,2.733-0.518,4.034-0.518c1.277,0,2.402,0.117,3.375,0.352s1.852,0.609,2.637,1.125
		c0.844,0.563,1.482,1.242,1.916,2.039c0.434,0.797,0.65,1.729,0.65,2.795c0,1.453-0.514,2.722-1.538,3.806s-2.235,1.767-3.63,2.048
		v0.246c0.563,0.094,1.207,0.29,1.934,0.589C131.948,28.299,132.563,28.67,133.066,29.115z"/>
</g>
<path fill="#FFFFFF" d="M99.618,99.092c-1.929-0.804-12.048-0.804-12.048-0.804c2.57-0.644,10.934-3.533,9.724-5.782
	c-1.209-2.249-6.511-4.98-7.796-4.498c-1.285,0.481-9.156,6.586-9.156,6.586c-0.26-0.328-0.592-0.798-0.943-1.305
	c2.119-3.729,5.533-8.654,12.188-14.275c9.478-8.834,4.659-24.256,3.054-28.914c0,0-2.09,2.892-4.178,8.674
	c2.57-9.316-5.14-18.472-15.582-23.773C78.415,48.815,65.885,53.795,59.14,70.5c-3.223,7.98-1.837,14.395,1.179,19.252
	c-3.107,0.551-5.752,1.732-7.605,3.719c5.783,3.532,10.923,5.301,11.404,5.781c0.482,0.482-16.384,1.768-15.099,2.409
	c1.285,0.644,3.694,6.104,5.461,6.265c1.767,0.161,11.902-3.213,12.459-3.213c-1.858,1.768-6.195,6.907-5.552,7.871
	c0.643,0.964,8.834,1.768,9.799,1.124c0.964-0.644,2.891-6.906,4.016-6.906s5.261,8.031,6.967,8.191
	c1.707,0.161,10.222-2.892,9.577-4.017c-0.643-1.123-8.191-5.621-6.745-5.942c1.606,0.321,14.617,2.892,15.42,1.446
	C101.225,105.034,101.545,99.895,99.618,99.092z M69.579,74.034c6.265-10.441,11.245-12.851,8.996-18.312
	c4.657,5.783,4.979,18.152-0.161,25.057c-5.141,6.908-5.918,9.586-5.461,14.617C69.74,90.578,63.315,84.475,69.579,74.034z"/>
</svg>
