<?xml version="1.0" encoding="utf-8"?>
<!-- Generator: Adobe Illustrator 16.0.0, SVG Export Plug-In . SVG Version: 6.00 Build 0)  -->
<!DOCTYPE svg PUBLIC "-//W3C//DTD SVG 1.1//EN" "http://www.w3.org/Graphics/SVG/1.1/DTD/svg11.dtd">
<svg version="1.1" id="Layer_1" xmlns="http://www.w3.org/2000/svg" xmlns:xlink="http://www.w3.org/1999/xlink" x="0px" y="0px"
	 width="150px" height="150px" viewBox="0 0 150 150" enable-background="new 0 0 150 150" xml:space="preserve">
<path fill="#FFFFFF" d="M108.934,50.459l-5.918-1.074c-0.717-2.104-1.871-3.492-1.871-3.492l-44.403-8.236
	c-2.888-0.537-4.521,0.369-5.523,1.779l-0.917-0.179c-1.584-0.397-3.186,0.564-3.582,2.148c-0.391,1.589,0.565,3.19,2.155,3.581
	l1.007,0.252c0.078,1.918,0.413,3.469,0.413,3.469s-3.29,28.162-3.29,41.232c-0.783,0.902-1.275,1.836-1.667,2.764l-1.376-0.262
	c-1.585-0.398-3.184,0.566-3.581,2.148c-0.392,1.59,0.564,3.189,2.154,3.582l2.133,0.531c0.301,1.881,0.904,3.189,0.904,3.189
	s34.021,7.117,45.185,10.318l0.295,0.289c0,0,0.125-0.016,0.348-0.105c0.113,0.033,0.264,0.074,0.369,0.105
	c-0.078-0.082-0.084-0.156-0.156-0.24c0.375-0.189,0.951-0.66,1.674-1.432l2.064,0.514c1.582,0.396,5.332,1.041,5.729-0.541
	c0.393-1.59,1.678-5.787,0.09-6.178l-4.129-1.986c-0.09-2.166-1.152-3.385-1.152-3.385s3.289-27.039,3.289-38.498
	c1.023-0.873,1.803-1.751,2.428-2.619l0.084,0.022c1.584,0.397,6.76,0.061,7.158-1.522C109.236,55.047,110.523,50.85,108.934,50.459
	z M71.513,88.688c-6.776,0-12.265-7.453-12.265-16.653c0-9.199,5.488-16.652,12.265-16.652s12.267,7.453,12.267,16.652
	C83.779,81.234,78.289,88.688,71.513,88.688z M91.836,110.352c-1.254-2.506-1.791-5.551,1.611-7.697
	C93.447,102.654,92.193,106.592,91.836,110.352z M98.65,57.71c-1.455-2.176-0.906-6.983,1.242-7.878
	C99.893,49.833,98.461,54.308,98.65,57.71z"/>
<g>
	<path fill="#FFFFFF" d="M135,28.605c0,4.699-0.735,8.147-2.206,10.345s-3.753,3.296-6.847,3.296c-3.141,0-5.435-1.113-6.882-3.34
		s-2.171-5.648-2.171-10.266c0-4.652,0.732-8.089,2.197-10.31S122.842,15,125.947,15c3.141,0,5.435,1.128,6.882,3.384
		S135,24.047,135,28.605z M130.377,36.586c0.41-0.949,0.688-2.065,0.835-3.349s0.22-2.827,0.22-4.632
		c0-1.781-0.073-3.328-0.22-4.641s-0.431-2.426-0.853-3.34c-0.41-0.902-0.97-1.582-1.679-2.039s-1.62-0.686-2.733-0.686
		c-1.102,0-2.013,0.229-2.733,0.686s-1.292,1.148-1.714,2.074c-0.398,0.867-0.671,1.998-0.817,3.393s-0.22,2.924-0.22,4.588
		c0,1.828,0.064,3.357,0.193,4.588s0.404,2.332,0.826,3.305c0.387,0.914,0.935,1.611,1.644,2.092s1.649,0.721,2.821,0.721
		c1.102,0,2.016-0.229,2.742-0.686S129.979,37.512,130.377,36.586z"/>
</g>
</svg>
