<?xml version="1.0" encoding="utf-8"?>
<!-- Generator: Adobe Illustrator 16.0.0, SVG Export Plug-In . SVG Version: 6.00 Build 0)  -->
<!DOCTYPE svg PUBLIC "-//W3C//DTD SVG 1.1//EN" "http://www.w3.org/Graphics/SVG/1.1/DTD/svg11.dtd">
<svg version="1.1" id="Layer_1" xmlns="http://www.w3.org/2000/svg" xmlns:xlink="http://www.w3.org/1999/xlink" x="0px" y="0px"
	 width="150px" height="150px" viewBox="0 0 150 150" enable-background="new 0 0 150 150" xml:space="preserve">
<path fill="#FFFFFF" d="M75,37.5c-20.71,0-37.5,16.792-37.5,37.5s16.79,37.5,37.5,37.5s37.5-16.792,37.5-37.5S95.711,37.5,75,37.5z
	 M79.73,67.634c-0.865-0.555-1.828-0.972-2.867-1.197v-24.62c7.781,0.431,14.836,3.526,20.287,8.398L79.73,67.634z M73.137,66.437
	c-1.038,0.226-2.002,0.643-2.867,1.197L52.85,50.216c5.451-4.873,12.506-7.967,20.287-8.398V66.437z M67.632,70.272
	c-0.554,0.862-0.968,1.829-1.194,2.868h-24.62c0.432-7.782,3.522-14.834,8.395-20.287L67.632,70.272z M66.438,76.865
	c0.223,1.039,0.637,2,1.194,2.867l-17.419,17.42c-4.874-5.453-7.963-12.506-8.395-20.287H66.438z M70.27,82.371
	c0.865,0.555,1.829,0.972,2.87,1.197v24.619c-7.782-0.432-14.836-3.525-20.29-8.398L70.27,82.371z M76.865,83.563
	c1.037-0.221,2.004-0.638,2.865-1.191l17.422,17.418c-5.453,4.873-12.504,7.968-20.287,8.398V83.563z M82.369,79.732
	c0.555-0.861,0.971-1.828,1.193-2.867h24.623c-0.433,7.781-3.521,14.834-8.398,20.287L82.369,79.732z M83.563,73.14
	c-0.227-1.039-0.639-2.005-1.196-2.868l17.418-17.425c4.879,5.454,7.971,12.51,8.401,20.292L83.563,73.14L83.563,73.14z"/>
<g>
	<path fill="#FFFFFF" d="M135,28.605c0,4.699-0.734,8.147-2.206,10.345c-1.471,2.198-3.753,3.296-6.847,3.296
		c-3.141,0-5.436-1.113-6.883-3.34c-1.446-2.227-2.17-5.648-2.17-10.266c0-4.652,0.731-8.089,2.196-10.31
		c1.466-2.221,3.751-3.33,6.856-3.33c3.141,0,5.435,1.128,6.882,3.384C134.275,20.64,135,24.047,135,28.605z M130.377,36.586
		c0.41-0.949,0.688-2.065,0.835-3.349c0.147-1.284,0.22-2.827,0.22-4.632c0-1.781-0.072-3.328-0.22-4.641s-0.431-2.426-0.853-3.34
		c-0.41-0.902-0.971-1.582-1.68-2.039s-1.619-0.686-2.732-0.686c-1.102,0-2.014,0.229-2.733,0.686s-1.292,1.148-1.714,2.074
		c-0.398,0.867-0.671,1.998-0.816,3.393c-0.146,1.395-0.221,2.924-0.221,4.588c0,1.828,0.064,3.357,0.193,4.588
		s0.404,2.332,0.826,3.305c0.387,0.914,0.935,1.611,1.644,2.092s1.649,0.721,2.821,0.721c1.102,0,2.016-0.229,2.742-0.686
		C129.415,38.203,129.979,37.512,130.377,36.586z"/>
</g>
</svg>
