<?xml version="1.0" encoding="utf-8"?>
<!-- Generator: Adobe Illustrator 16.0.0, SVG Export Plug-In . SVG Version: 6.00 Build 0)  -->
<!DOCTYPE svg PUBLIC "-//W3C//DTD SVG 1.1//EN" "http://www.w3.org/Graphics/SVG/1.1/DTD/svg11.dtd">
<svg version="1.1" id="Layer_1" xmlns="http://www.w3.org/2000/svg" xmlns:xlink="http://www.w3.org/1999/xlink" x="0px" y="0px"
	 width="150px" height="150px" viewBox="0 0 150 150" enable-background="new 0 0 150 150" xml:space="preserve">
<g>
	<path fill="#FFFFFF" d="M78.438,55.695l-2.369-7.006l4.859-10.74L79.939,37.5l-4.379,9.686l-2.536-7.489l-3.327,4.588l4.993,3.714
		c-2.548,9.76-21.292,39.745-30.497,49.887c8.742,1.006,14.616,9.309,15.617,14.615c2.29-1.431,7.737-1.438,15.189-2.297
		c7.452,0.859,12.899,0.866,15.19,2.297c1.001-5.307,6.874-13.609,15.616-14.615C98.398,89.723,84.793,68.687,78.438,55.695z
		 M75,107.765c0,0-4.894-0.592-13.9,1.577c4.299-7.308,13.757-11.184,13.9-26.799C75,100.025,75,107.765,75,107.765z"/>
</g>
<g>
	<path fill="#FFFFFF" d="M135,28.605c0,4.699-0.734,8.147-2.205,10.345s-3.754,3.296-6.848,3.296c-3.141,0-5.434-1.113-6.881-3.34
		s-2.172-5.648-2.172-10.266c0-4.652,0.732-8.089,2.197-10.31S122.842,15,125.947,15c3.141,0,5.436,1.128,6.883,3.384
		S135,24.047,135,28.605z M130.377,36.586c0.41-0.949,0.689-2.065,0.836-3.349s0.219-2.827,0.219-4.632
		c0-1.781-0.072-3.328-0.219-4.641s-0.432-2.426-0.854-3.34c-0.41-0.902-0.969-1.582-1.678-2.039s-1.621-0.686-2.734-0.686
		c-1.102,0-2.012,0.229-2.732,0.686s-1.293,1.148-1.715,2.074c-0.398,0.867-0.67,1.998-0.816,3.393s-0.221,2.924-0.221,4.588
		c0,1.828,0.064,3.357,0.193,4.588s0.404,2.332,0.826,3.305c0.387,0.914,0.936,1.611,1.645,2.092s1.648,0.721,2.82,0.721
		c1.102,0,2.016-0.229,2.742-0.686S129.979,37.512,130.377,36.586z"/>
</g>
</svg>
