<?xml version="1.0" encoding="utf-8"?>
<!-- Generator: Adobe Illustrator 16.0.0, SVG Export Plug-In . SVG Version: 6.00 Build 0)  -->
<!DOCTYPE svg PUBLIC "-//W3C//DTD SVG 1.1//EN" "http://www.w3.org/Graphics/SVG/1.1/DTD/svg11.dtd">
<svg version="1.1" id="Layer_1" xmlns="http://www.w3.org/2000/svg" xmlns:xlink="http://www.w3.org/1999/xlink" x="0px" y="0px"
	 width="150px" height="150px" viewBox="0 0 150 150" enable-background="new 0 0 150 150" xml:space="preserve">
<g>
	<path fill="#FFFFFF" d="M103.191,72.847L97.61,48.39L75.005,37.5L52.401,48.39l-5.592,24.458l12.629,15.85l-3.943,21.406
		l8.62-6.416l7.163,8.813l1.344-20.029h3.322l3.581,16.719l4.586-8.066l8.438,2.564l-4.462-11.895L103.191,72.847z M80.138,70.71
		l0.564,7.745l-5.703-5.27l-5.702,5.27l0.565-7.745l-7.676-1.173l6.405-4.387l-3.868-6.732l7.425,2.274l2.851-7.222l2.853,7.222
		l7.425-2.274l-3.87,6.732l6.407,4.387L80.138,70.71z"/>
</g>
<g>
	<path fill="#FFFFFF" d="M135,28.605c0,4.699-0.735,8.147-2.206,10.345s-3.753,3.296-6.847,3.296c-3.141,0-5.435-1.113-6.882-3.34
		s-2.171-5.648-2.171-10.266c0-4.652,0.732-8.089,2.197-10.31S122.842,15,125.947,15c3.141,0,5.435,1.128,6.882,3.384
		S135,24.047,135,28.605z M130.377,36.586c0.41-0.949,0.688-2.065,0.835-3.349s0.22-2.827,0.22-4.632
		c0-1.781-0.073-3.328-0.22-4.641s-0.431-2.426-0.853-3.34c-0.41-0.902-0.97-1.582-1.679-2.039s-1.62-0.686-2.733-0.686
		c-1.102,0-2.013,0.229-2.733,0.686s-1.292,1.148-1.714,2.074c-0.398,0.867-0.671,1.998-0.817,3.393s-0.22,2.924-0.22,4.588
		c0,1.828,0.064,3.357,0.193,4.588s0.404,2.332,0.826,3.305c0.387,0.914,0.935,1.611,1.644,2.092s1.649,0.721,2.821,0.721
		c1.102,0,2.016-0.229,2.742-0.686S129.979,37.512,130.377,36.586z"/>
</g>
</svg>
