<?xml version="1.0" encoding="utf-8"?>
<!-- Generator: Adobe Illustrator 16.0.0, SVG Export Plug-In . SVG Version: 6.00 Build 0)  -->
<!DOCTYPE svg PUBLIC "-//W3C//DTD SVG 1.1//EN" "http://www.w3.org/Graphics/SVG/1.1/DTD/svg11.dtd">
<svg version="1.1" id="Layer_1" xmlns="http://www.w3.org/2000/svg" xmlns:xlink="http://www.w3.org/1999/xlink" x="0px" y="0px"
	 width="150px" height="150px" viewBox="0 0 150 150" enable-background="new 0 0 150 150" xml:space="preserve">
<path fill="#FFFFFF" d="M108.922,68.765c1.98-0.567-1.271-9.898-4.381-10.465c-1.396-2.236-8.453-13.57-18.168-20.799
	c2.166,4.762,7.184,16.026,8.408,24.336c-1.965,0.596-6.299,3.627-11.129,7.588c-2.113-3.172-5.203-5.186-8.659-5.186
	c-3.219,0-6.126,1.746-8.218,4.555c-6.464-6.215-11.306-10.872-11.418-10.961c-0.33-0.265,2.706-9.255,17.35-8.751
	c-6.682-2.563-16.285,0.8-20.681,2.748c-1.215,3.093-1.266,3.061-4.734,5.727c1.181-1.605,1.752-2.087,2.325-4.675
	c-2.42,0.388-4.751,1.313-5.874,2.711c-1.237,1.544-1.627,4.405-1.333,7.086c-1.506,1.876-4.635,13.691,1.276,22.6
	c-3.676-14.187,4.438-19.103,4.771-18.837c0.122,0.099,6.735,5.045,15.089,11.291c-0.047,0.563-0.077,1.131-0.077,1.71
	c0,3.08,0.699,5.939,1.891,8.335c-0.843,1.246-1.64,2.58-2.4,3.945c0.999,0.59,2.184,1.307,3.384,2.043l-0.956,2.365l-4.462-0.417
	c-0.787,1.691-1.475,3.362-2.056,4.977c1.196,0.319,2.687,0.747,4.194,1.192l-0.897,2.219c-1.764,0.563-3.486,1.103-4.614,0.845
	c-0.798,3.271-0.896,5.805,0.029,6.673c0,0,5.802,1.981,7.073,0c0.243-1.551,2.177-6.879,2.708-8.444
	c-0.111-0.026-0.233-0.039-0.353-0.054l0.068-0.031l0,0c0.093,0.028,0.194,0.059,0.284,0.085c0.543-1.163,2.999-5.369,3.653-6.52
	c0.515-0.785,1.056-1.563,1.609-2.333c0.764,0.212,1.557,0.324,2.368,0.324c2.628,0,5.043-1.172,6.982-3.124
	c8.546,6.396,15.505,11.613,16.019,12.024c1.379,1.104,1.859,0.141,2.303-0.413c0.445-0.555,1.287-1.236-0.092-2.345
	c-0.523-0.418-7.07-6.677-15.002-14.289c0.84-2.11,1.32-4.509,1.32-7.058c0-0.105-0.01-0.21-0.012-0.315
	c4.258-3.794,8.166-6.667,10.674-8.099c0.143,3.962,1.979,14.427,3.773,18.671c1.797,4.242,6.127,2.263,7.824,0.142
	C110.48,87.719,109.633,73.433,108.922,68.765z"/>
<g>
	<path fill="#FFFFFF" d="M135,28.605c0,4.699-0.735,8.147-2.206,10.345s-3.753,3.296-6.847,3.296c-3.141,0-5.435-1.113-6.882-3.34
		s-2.171-5.648-2.171-10.266c0-4.652,0.732-8.089,2.197-10.31S122.842,15,125.947,15c3.141,0,5.435,1.128,6.882,3.384
		S135,24.047,135,28.605z M130.377,36.586c0.41-0.949,0.688-2.065,0.835-3.349s0.22-2.827,0.22-4.632
		c0-1.781-0.073-3.328-0.22-4.641s-0.431-2.426-0.853-3.34c-0.41-0.902-0.97-1.582-1.679-2.039s-1.62-0.686-2.733-0.686
		c-1.102,0-2.013,0.229-2.733,0.686s-1.292,1.148-1.714,2.074c-0.398,0.867-0.671,1.998-0.817,3.393s-0.22,2.924-0.22,4.588
		c0,1.828,0.064,3.357,0.193,4.588s0.404,2.332,0.826,3.305c0.387,0.914,0.935,1.611,1.644,2.092s1.649,0.721,2.821,0.721
		c1.102,0,2.016-0.229,2.742-0.686S129.979,37.512,130.377,36.586z"/>
</g>
</svg>
