<?xml version="1.0" encoding="utf-8"?>
<!-- Generator: Adobe Illustrator 16.0.0, SVG Export Plug-In . SVG Version: 6.00 Build 0)  -->
<!DOCTYPE svg PUBLIC "-//W3C//DTD SVG 1.1//EN" "http://www.w3.org/Graphics/SVG/1.1/DTD/svg11.dtd">
<svg version="1.1" id="Layer_1" xmlns="http://www.w3.org/2000/svg" xmlns:xlink="http://www.w3.org/1999/xlink" x="0px" y="0px"
	 width="150px" height="150px" viewBox="0 0 150 150" enable-background="new 0 0 150 150" xml:space="preserve">
<g>
	<g id="XMLID_1_">
		<g>
			<path fill="#FFFFFF" d="M92.925,104.31c4.606,2.397,3.219,5.969,0.644,7.458c-2.587,1.515-6.373,0.947-6.171-4.253
				c-2.738-4.707-2.562-9.263-6.486-11.888c1.464-0.631,3.546-1.729,4.909-2.625C86.262,97.558,90.225,99.678,92.925,104.31z"/>
			<path fill="#FFFFFF" d="M90.022,84.56c2.246-0.151,3.571-3.685,7.017-5.691s2.928,5.439,1.225,5.287
				c-1.717-0.164-6.651,3.635-12.292,5.982c-0.076,0.391-0.126,0.757-0.151,1.11l-6.575,3.509c-0.227-0.102-0.454-0.202-0.707-0.291
				c-4.846,3.735-10.6,6.146-11.294,7.711c-0.707,1.564-7.433-1.679-3.988-3.685c3.445-1.994,7.168-1.389,8.417-3.269
				c1.262-1.894,4.695-2.727,4.341-4.14c-4.102-7.067-22.893-40.182-23.801-43.336C51.305,44.593,50.409,37.5,50.409,37.5
				s5.717,4.291,8.013,6.638c2.284,2.36,21.756,35.083,25.858,42.137C85.328,87.285,87.764,84.724,90.022,84.56z"/>
		</g>
		<g>
		</g>
	</g>
</g>
<g>
	<path fill="#FFFFFF" d="M135,41.262h-14.168V38.59h5.449V21.047h-5.449v-2.391c0.738,0,1.529-0.062,2.373-0.185
		s1.482-0.302,1.916-0.536c0.539-0.293,0.964-0.665,1.274-1.116s0.489-1.058,0.536-1.819h2.725v23.59H135V41.262z"/>
</g>
</svg>
